<svg width="37" height="36" viewBox="0 0 37 36" fill="none" xmlns="http://www.w3.org/2000/svg">
<path d="M11.374 22.0508C11.374 23.8903 12.8685 25.4422 14.708 25.4424H23.1592C21.7794 28.7192 18.5023 31.0186 14.708 31.0186C9.70657 31.0184 5.625 26.9946 5.625 22.0508C5.62509 18.2567 8.03968 15.037 11.374 13.7148V22.0508ZM15.8564 21.0166H23.4453V18.6016H20.1104C19.4781 18.6014 18.961 18.0844 18.9609 17.4521C18.9609 16.8199 19.4781 16.3029 20.1104 16.3027H23.7324C24.8247 16.3027 25.6875 17.1646 25.6875 18.2568V20.959H27.4121C27.7569 20.9591 28.0445 21.1315 28.2744 21.3613L32.3555 26.248C32.7578 26.7079 32.701 27.4548 32.2412 27.7998C32.0113 28.0298 31.7231 28.0869 31.4932 28.0869C31.1484 28.0868 30.8607 27.9719 30.6309 27.6846L26.8945 23.2012H14.7061C14.0739 23.2009 13.5566 22.683 13.5566 22.0508V12.3359C13.9589 12.3934 14.3038 12.4502 14.7061 12.4502C15.1085 12.4502 15.5115 12.3934 15.8564 12.3359V21.0166ZM14.708 4C16.49 4.00015 17.8701 5.37997 17.8701 7.10449C17.87 8.82893 16.4325 10.2088 14.708 10.209C12.9834 10.209 11.546 8.82903 11.5459 7.10449C11.5459 5.37987 12.9833 4 14.708 4Z" fill="url(#paint0_linear_2019_2533)"/>
<defs>
<linearGradient id="paint0_linear_2019_2533" x1="5.625" y1="9.28883" x2="5.625" y2="31.0189" gradientUnits="userSpaceOnUse">
<stop stop-color="#1CBDA1"/>
<stop offset="1" stop-color="#4CD6B3"/>
</linearGradient>
</defs>
</svg>
