<svg width="37" height="36" viewBox="0 0 37 36" fill="none" xmlns="http://www.w3.org/2000/svg">
<g clip-path="url(#clip0_11_113)">
<path fill-rule="evenodd" clip-rule="evenodd" d="M31.3092 27.4495V22.2995C31.3092 20.4495 29.7992 18.9395 27.9492 18.9395H19.4392V27.4495C19.4392 29.2995 20.9492 30.8095 22.7992 30.8095H27.9492C29.7992 30.8095 31.3092 29.2995 31.3092 27.4495ZM17.5601 27.4495V18.9395H9.05012C7.20012 18.9395 5.69012 20.4495 5.69012 22.2995V27.4495C5.69012 29.2995 7.20012 30.8095 9.05012 30.8095H14.2001C16.0501 30.8095 17.5601 29.2995 17.5601 27.4495ZM31.31 13.7004V8.55043C31.31 6.70043 29.8 5.19043 27.95 5.19043H22.8C20.95 5.19043 19.44 6.70043 19.44 8.55043V17.0604H27.95C29.8 17.0604 31.31 15.5504 31.31 13.7004ZM17.5601 17.0604V8.55043C17.5601 6.70043 16.0501 5.19043 14.2001 5.19043H9.05012C7.20012 5.19043 5.69012 6.70043 5.69012 8.55043V13.7004C5.69012 14.7604 6.18012 15.7404 7.04012 16.3804V16.4204H7.09012C7.67012 16.8404 8.35012 17.0604 9.05012 17.0604H17.5601Z" fill="url(#paint0_linear_11_113)"/>
</g>
<defs>
<linearGradient id="paint0_linear_11_113" x1="5.69012" y1="5.19043" x2="5.69012" y2="30.8095" gradientUnits="userSpaceOnUse">
<stop stop-color="#22B9A4"/>
<stop offset="1" stop-color="#45CFAE"/>
</linearGradient>
<clipPath id="clip0_11_113">
<rect width="36" height="36" fill="white" transform="translate(0.5)"/>
</clipPath>
</defs>
</svg>
