<svg width="33" height="32" viewBox="0 0 33 32" fill="none" xmlns="http://www.w3.org/2000/svg">
<g clip-path="url(#clip0_2019_2353)">
<mask id="mask0_2019_2353" style="mask-type:luminance" maskUnits="userSpaceOnUse" x="0" y="0" width="33" height="32">
<path fill-rule="evenodd" clip-rule="evenodd" d="M0.625 0H32.625V32H0.625V0Z" fill="white"/>
</mask>
<g mask="url(#mask0_2019_2353)">
<path fill-rule="evenodd" clip-rule="evenodd" d="M11.9324 8.48269V6.09336C11.9324 5.50669 11.4524 5.02669 10.8657 5.02669C10.2791 5.02669 9.79907 5.50669 9.79907 6.09336V8.48269C9.79907 9.06936 10.2791 9.54936 10.8657 9.54936C11.4524 9.54936 11.9324 9.06936 11.9324 8.48269ZM23.494 8.43204V6.04271C23.494 5.45604 23.014 4.97604 22.4274 4.97604C21.8407 4.97604 21.3607 5.45604 21.3607 6.04271V8.43204C21.3607 9.01871 21.8407 9.49871 22.4274 9.49871C23.014 9.49871 23.494 9.01871 23.494 8.43204Z" fill="#42D1A3"/>
<path fill-rule="evenodd" clip-rule="evenodd" d="M4.68311 10.168V12.1306H28.5658V10.168C28.5658 8.69598 27.3711 7.50131 25.8991 7.50131H7.34977C5.87777 7.50131 4.68311 8.69598 4.68311 10.168Z" fill="#A5F0D9"/>
<path fill-rule="evenodd" clip-rule="evenodd" d="M7.34928 27.0214H25.8986C27.3706 27.0214 28.5653 25.8267 28.5653 24.3547V13.4641H4.68262V24.3547C4.68262 25.8267 5.87728 27.0214 7.34928 27.0214ZM21.2512 17.3378C20.8565 16.9005 20.1845 16.8685 19.7472 17.2631L15.5125 21.0818L13.4858 19.0551C13.0698 18.6391 12.3872 18.6391 11.9712 19.0551C11.5552 19.4711 11.5552 20.1431 11.9712 20.5591L14.7445 23.3325C15.1605 23.7485 15.8325 23.7485 16.2485 23.3325C16.3018 23.2791 16.3338 23.2365 16.3765 23.1831L21.1765 18.8418C21.6138 18.4471 21.6458 17.7751 21.2512 17.3378Z" fill="#42D1A3"/>
</g>
</g>
<defs>
<clipPath id="clip0_2019_2353">
<rect width="32" height="32" fill="white" transform="translate(0.625)"/>
</clipPath>
</defs>
</svg>
