<svg width="31" height="30" viewBox="0 0 31 30" fill="none" xmlns="http://www.w3.org/2000/svg">
<path d="M13.3539 0.687657C14.9096 -0.22922 16.8404 -0.229219 18.3961 0.687659L20.5325 1.94684C20.9321 2.18232 21.3626 2.36065 21.8116 2.47666L24.2127 3.09698C25.961 3.54867 27.3263 4.91396 27.778 6.66231L28.3983 9.06339C28.5143 9.5124 28.6927 9.94295 28.9282 10.3425L30.1873 12.4789C31.1042 14.0346 31.1042 15.9654 30.1873 17.5211L28.9282 19.6575C28.6927 20.057 28.5143 20.4876 28.3983 20.9366L27.778 23.3377C27.3263 25.086 25.961 26.4513 24.2127 26.903L21.8116 27.5233C21.3626 27.6393 20.9321 27.8177 20.5325 28.0532L18.3961 29.3123C16.8404 30.2292 14.9096 30.2292 13.3539 29.3123L11.2175 28.0532C10.8179 27.8177 10.3874 27.6393 9.93839 27.5233L7.53731 26.903C5.78896 26.4513 4.42367 25.086 3.97198 23.3377L3.35166 20.9366C3.23565 20.4876 3.05732 20.057 2.82184 19.6575L1.56266 17.5211C0.64578 15.9654 0.645781 14.0346 1.56266 12.4789L2.82184 10.3425C3.05732 9.94295 3.23565 9.5124 3.35166 9.06339L3.97198 6.66231C4.42367 4.91396 5.78896 3.54867 7.53731 3.09698L9.93839 2.47666C10.3874 2.36065 10.8179 2.18232 11.2175 1.94684L13.3539 0.687657Z" fill="white"/>
<path d="M13.7319 2.83488C15.0542 2.05553 16.6953 2.05553 18.0177 2.83488L19.8337 3.90518C20.1733 4.10533 20.5392 4.25692 20.9209 4.35552L22.9618 4.8828C24.4479 5.26674 25.6084 6.42723 25.9923 7.91333L26.5196 9.95425C26.6182 10.3359 26.7698 10.7019 26.9699 11.0415L28.0402 12.8575C28.8196 14.1798 28.8196 15.821 28.0402 17.1433L26.9699 18.9593C26.7698 19.2989 26.6182 19.6648 26.5196 20.0465L25.9923 22.0874C25.6084 23.5735 24.4479 24.734 22.9618 25.1179L20.9209 25.6452C20.5392 25.7438 20.1733 25.8954 19.8337 26.0956L18.0177 27.1659C16.6953 27.9452 15.0542 27.9452 13.7319 27.1659L11.9159 26.0956C11.5763 25.8954 11.2103 25.7438 10.8286 25.6452L8.78772 25.1179C7.30162 24.734 6.14113 23.5735 5.75719 22.0874L5.22991 20.0465C5.13131 19.6648 4.97972 19.2989 4.77957 18.9593L3.70926 17.1433C2.92992 15.821 2.92992 14.1798 3.70927 12.8575L4.77957 11.0415C4.97972 10.7019 5.13131 10.3359 5.22991 9.95425L5.75719 7.91333C6.14113 6.42723 7.30162 5.26674 8.78772 4.8828L10.8286 4.35552C11.2103 4.25692 11.5763 4.10533 11.9159 3.90518L13.7319 2.83488Z" fill="url(#paint0_linear_9259_776)"/>
<path d="M22.8978 12.1511C23.2827 11.7716 23.2846 11.1512 22.902 10.7694L22.1629 10.0318C21.7855 9.65527 21.1753 9.65255 20.7945 10.0257L13.8752 16.8076L10.9761 13.9449C10.6011 13.5747 9.99966 13.5702 9.61924 13.9348L8.86253 14.6599C8.46859 15.0374 8.46203 15.665 8.84798 16.0507L11.7172 18.9178L12.485 19.6839C13.2338 20.431 14.4422 20.4432 15.2059 19.7113L15.99 18.96L22.8978 12.1511Z" fill="white"/>
<defs>
<linearGradient id="paint0_linear_9259_776" x1="15.8748" y1="2.25037" x2="15.8748" y2="27.7504" gradientUnits="userSpaceOnUse">
<stop stop-color="#F5B049"/>
<stop offset="1" stop-color="#F59300"/>
</linearGradient>
</defs>
</svg>
