<svg width="33" height="32" viewBox="0 0 33 32" fill="none" xmlns="http://www.w3.org/2000/svg">
<g clip-path="url(#clip0_2019_2365)">
<mask id="mask0_2019_2365" style="mask-type:luminance" maskUnits="userSpaceOnUse" x="0" y="0" width="33" height="32">
<path fill-rule="evenodd" clip-rule="evenodd" d="M0.875 0H32.875V32H0.875V0Z" fill="white"/>
</mask>
<g mask="url(#mask0_2019_2365)">
<path fill-rule="evenodd" clip-rule="evenodd" d="M8.90741 7.17734C7.41407 7.17734 6.20874 8.38267 6.20874 9.876V25.236C6.20874 26.7293 7.41407 27.9347 8.90741 27.9347H24.8434C26.3367 27.9347 27.5421 26.7293 27.5421 25.236V9.876C27.5421 8.38267 26.3367 7.17734 24.8434 7.17734H8.90741ZM18.2087 20.4774C18.2087 19.8481 17.7074 19.3361 17.0674 19.3361H12.6834C12.0541 19.3361 11.5421 19.8481 11.5421 20.4774V21.0427C11.5421 21.6827 12.0541 22.1841 12.6834 22.1841H17.0674C17.7074 22.1841 18.2087 21.6827 18.2087 21.0427V20.4774ZM22.2087 15.0787C22.2087 14.4493 21.6967 13.9373 21.0674 13.9373H12.6834C12.0541 13.9373 11.5421 14.4493 11.5421 15.0787V15.6547C11.5421 16.284 12.0541 16.796 12.6834 16.796H21.0674C21.6967 16.796 22.2087 16.284 22.2087 15.6547V15.0787Z" fill="#75A9F3"/>
<path fill-rule="evenodd" clip-rule="evenodd" d="M22.935 7.26134V6.78134C22.935 5.27734 21.7083 4.06134 20.215 4.06134H13.5376C12.0336 4.06134 10.8176 5.27734 10.8176 6.78134V7.26134C10.8176 8.76534 12.0336 9.98134 13.5376 9.98134H20.215C21.7083 9.98134 22.935 8.76534 22.935 7.26134Z" fill="#BAD5FE"/>
</g>
</g>
<defs>
<clipPath id="clip0_2019_2365">
<rect width="32" height="32" fill="white" transform="translate(0.875)"/>
</clipPath>
</defs>
</svg>
