<svg width="37" height="36" viewBox="0 0 37 36" fill="none" xmlns="http://www.w3.org/2000/svg">
<path d="M27.6814 4.5H9.06862C6.77074 4.5 4.875 6.39574 4.875 8.69362V16.8511H10.6197L15.3878 10.4745C15.675 10.0723 16.192 9.9 16.6516 10.0723C17.1112 10.2447 17.3984 10.6468 17.3984 11.1638V20.1255L19.7537 15.0702C19.9261 14.7255 20.2133 14.4957 20.6154 14.4383C21.0176 14.3809 21.3622 14.4957 21.6495 14.783L23.6601 17.0809H26.8771C27.509 17.0809 28.0261 17.5979 28.0261 18.2298C28.0261 18.8617 27.509 19.3787 26.8771 19.3787H23.1431C22.7984 19.3787 22.5112 19.2638 22.2814 18.9766L21.075 17.5979L17.2835 25.7553C17.1112 26.1574 16.709 26.3872 16.2495 26.3872C16.192 26.3872 16.0771 26.3872 16.0197 26.3872C15.5027 26.2723 15.158 25.8128 15.158 25.2957V14.5532L12.0559 18.6894C11.8261 18.9766 11.4814 19.1489 11.1367 19.1489H4.875V27.3064C4.875 29.6043 6.77074 31.5 9.06862 31.5H27.6814C29.9793 31.5 31.875 29.6043 31.875 27.3064V8.69362C31.875 6.39574 29.9793 4.5 27.6814 4.5Z" fill="url(#paint0_linear_2019_2538)"/>
<defs>
<linearGradient id="paint0_linear_2019_2538" x1="4.875" y1="4.5" x2="4.875" y2="31.5" gradientUnits="userSpaceOnUse">
<stop stop-color="#FF8273"/>
<stop offset="1" stop-color="#FFBCAD"/>
</linearGradient>
</defs>
</svg>
