<svg width="37" height="36" viewBox="0 0 37 36" fill="none" xmlns="http://www.w3.org/2000/svg">
<path d="M22.9756 4.57156C23.2617 4.5716 23.5476 4.68648 23.7764 4.91531L31.959 13.097C32.4167 13.4975 32.4163 14.2418 31.9014 14.6995L27.7823 18.8186C26.4663 20.1347 24.6918 20.8216 22.918 20.8216C22.4031 20.8215 21.888 20.7641 21.3731 20.6497C21.8881 22.9384 21.2586 25.399 19.542 27.1155L15.4229 31.2356C15.1942 31.4643 14.908 31.5783 14.6221 31.5784C14.3361 31.5784 14.0492 31.4644 13.8204 31.2356L5.63872 23.053C5.18097 22.5953 5.18097 21.9082 5.63872 21.4505L9.75786 17.3313C11.5316 15.6148 13.9922 14.9853 16.2237 15.5003C15.7087 13.2115 16.3382 10.751 18.0547 9.03445L22.1749 4.91531C22.4037 4.68644 22.6895 4.57156 22.9756 4.57156ZM11.9893 22.0804C11.5316 21.6228 10.8454 21.6227 10.3877 22.0804C9.93 22.5381 9.93 23.2251 10.3877 23.6829L13.1338 26.429C13.3626 26.6577 13.6487 26.7716 13.9346 26.7718C14.2207 26.7718 14.5075 26.6579 14.7364 26.429C15.194 25.9712 15.1941 25.2842 14.7364 24.8264L11.9893 22.0804ZM14.7364 19.3343C14.2786 18.8765 13.5916 18.8765 13.1338 19.3343C12.6764 19.792 12.6763 20.4782 13.1338 20.9358L15.8809 23.6829C16.1097 23.9115 16.3958 24.0257 16.6817 24.0257C16.9676 24.0256 17.2537 23.9115 17.4825 23.6829C17.9402 23.2251 17.9402 22.5381 17.4825 22.0804L14.7364 19.3343ZM21.7735 12.2962C21.3157 11.8386 20.6296 11.8385 20.1719 12.2962C19.7142 12.7539 19.7143 13.44 20.1719 13.8977L22.918 16.6448C23.1469 16.8737 23.4337 16.9876 23.7198 16.9876C24.0057 16.9875 24.2918 16.8735 24.5206 16.6448C24.9783 16.2443 24.9783 15.5 24.5206 15.0423L21.7735 12.2962ZM24.5206 9.5491C24.0628 9.09153 23.3757 9.09149 22.918 9.5491C22.4603 10.0068 22.4604 10.6939 22.918 11.1516L25.6651 13.8977C25.894 14.1266 26.1798 14.2415 26.4659 14.2415C26.7519 14.2415 27.0378 14.1266 27.2666 13.8977C27.7243 13.4972 27.7244 12.7539 27.2666 12.2962L24.5206 9.5491Z" fill="url(#paint0_linear_2019_2551)"/>
<defs>
<linearGradient id="paint0_linear_2019_2551" x1="5.29541" y1="4.57156" x2="5.29541" y2="31.5784" gradientUnits="userSpaceOnUse">
<stop stop-color="#5DB2F2"/>
<stop offset="1" stop-color="#80DBFE"/>
</linearGradient>
</defs>
</svg>
