<svg width="33" height="32" viewBox="0 0 33 32" fill="none" xmlns="http://www.w3.org/2000/svg">
<path d="M8.13867 17.6298C12.9535 13.212 20.7965 13.212 25.6113 17.6298L28.2422 20.0126C28.4405 20.211 28.54 20.4589 28.54 20.7069C28.54 20.9551 28.4407 21.2037 28.2422 21.4022L25.6113 23.785C23.1791 26.0186 20.0517 27.1102 16.875 27.1102C13.6983 27.1102 10.5709 25.969 8.13867 23.785L5.50781 21.4022C5.30928 21.2533 5.20996 20.9551 5.20996 20.7069C5.21 20.4589 5.30952 20.211 5.50781 20.0126L8.13867 17.6298ZM16.875 15.4452C13.9465 15.4452 11.6134 17.7784 11.6133 20.7069C11.6133 23.6355 13.9464 26.0184 16.875 26.0184C19.8036 26.0184 22.1367 23.6853 22.1367 20.7567C22.1367 17.8281 19.8036 15.4452 16.875 15.4452ZM16.875 17.3817C18.7115 17.3817 20.2001 18.8704 20.2002 20.7069C20.2002 22.5435 18.7116 24.0331 16.875 24.0331C15.0384 24.0331 13.5488 22.5435 13.5488 20.7069C13.5489 18.8704 15.0385 17.3817 16.875 17.3817ZM22.4346 7.65222L25.1641 4.87292L26.5049 6.21277L23.7246 8.94324L26.5547 11.7723L25.1641 13.162L22.3848 10.3329L19.5557 13.162L18.2646 11.8221L21.0449 9.04187L18.2646 6.21277L19.6055 4.82312L22.4346 7.65222Z" fill="url(#paint0_linear_2019_7346)"/>
<defs>
<linearGradient id="paint0_linear_2019_7346" x1="5.20996" y1="4.82312" x2="5.20996" y2="27.1104" gradientUnits="userSpaceOnUse">
<stop stop-color="#5DB2F2"/>
<stop offset="1" stop-color="#80DBFE"/>
</linearGradient>
</defs>
</svg>
