<svg width="33" height="32" viewBox="0 0 33 32" fill="none" xmlns="http://www.w3.org/2000/svg">
<g clip-path="url(#clip0_2019_2452)">
<mask id="mask0_2019_2452" style="mask-type:luminance" maskUnits="userSpaceOnUse" x="0" y="0" width="33" height="32">
<path fill-rule="evenodd" clip-rule="evenodd" d="M0.375 0H32.375V32H0.375V0Z" fill="white"/>
</mask>
<g mask="url(#mask0_2019_2452)">
<path fill-rule="evenodd" clip-rule="evenodd" d="M17.3981 7.20427L6.4541 18.1483L14.6888 26.3829C15.5954 27.2896 17.0781 27.2896 17.9848 26.3829L27.4888 16.8789C30.2621 14.0949 30.2194 9.5616 27.3288 6.8416C24.5448 4.2176 20.0968 4.49493 17.3981 7.20427ZM16.7882 19.5574L12.5109 15.28C12.0629 14.8427 11.3376 14.8427 10.8896 15.28L10.5376 15.6427C10.0789 16.0907 10.0789 16.816 10.5376 17.264L14.8149 21.5414C15.2522 21.9894 15.9882 21.9894 16.4362 21.5414L16.7882 21.1787C17.2362 20.7307 17.2362 20.0054 16.7882 19.5574Z" fill="#F4CFB9"/>
<path fill-rule="evenodd" clip-rule="evenodd" d="M5.40166 17.0774L14.6923 26.3788C15.599 27.2854 17.0817 27.2854 17.9883 26.3788L26.223 18.1334L15.0763 6.98678C12.2923 4.20278 7.75899 4.25611 5.03899 7.13611C2.41499 9.93078 2.69232 14.3681 5.40166 17.0774ZM16.7903 21.1883C17.2383 20.7296 17.2383 20.0043 16.7903 19.5563L12.513 15.2896C12.065 14.831 11.3396 14.831 10.8916 15.2896L10.529 15.6416C10.0916 16.0896 10.0916 16.815 10.529 17.263L14.8063 21.5403C15.2543 21.9883 15.9796 21.9883 16.4276 21.5403L16.7903 21.1883Z" fill="url(#paint0_linear_2019_2452)"/>
</g>
</g>
<defs>
<linearGradient id="paint0_linear_2019_2452" x1="-3.11411" y1="9.40659" x2="5.57282" y2="31.766" gradientUnits="userSpaceOnUse">
<stop stop-color="#FFAE71"/>
<stop offset="1" stop-color="#F49E64"/>
</linearGradient>
<clipPath id="clip0_2019_2452">
<rect width="32" height="32" fill="white" transform="translate(0.375)"/>
</clipPath>
</defs>
</svg>
