<svg width="33" height="32" viewBox="0 0 33 32" fill="none" xmlns="http://www.w3.org/2000/svg">
<path d="M27.8703 22.1599C28.3361 23.1951 28.3879 24.282 28.0256 25.3689C27.6632 26.4041 26.9387 27.2839 25.9035 27.7498C25.3342 28.0086 24.7131 28.1638 24.092 28.1638C22.5391 28.1638 21.0374 27.2841 20.3127 25.783L18.8635 22.781L26.4211 19.158L27.8703 22.1599ZM20.0549 3.83572C21.7629 3.83572 23.3673 4.61218 24.5578 5.90604C26.3177 7.92476 26.7844 10.9791 25.9045 13.5154L25.8527 13.4119C24.8175 11.2896 22.643 9.89236 20.2619 9.89236C19.3302 9.89237 18.3987 10.0994 17.5705 10.5135C16.0694 11.2381 14.9817 12.5319 14.4123 14.0847C13.843 15.6893 13.9475 17.3454 14.672 18.8465L16.1213 21.8494L17.3117 24.2303L15.966 25.783C15.759 26.0417 15.5 26.1452 15.1896 26.1453C15.0862 26.1453 14.9308 26.1452 14.8273 26.0935C14.6203 26.0418 14.4641 25.8865 14.3605 25.7312L5.76873 15.948C3.33588 13.2046 3.33588 8.70122 5.76873 5.95779C6.95923 4.61217 8.6154 3.83575 10.3234 3.83572C12.0316 3.83572 13.6885 4.5602 14.8791 5.95779L15.1896 6.3201L15.5002 5.95779C16.6907 4.61217 18.3468 3.83574 20.0549 3.83572ZM18.5012 12.4285C20.5717 11.445 23.1085 12.3248 24.092 14.3953L25.5929 17.3972L18.0353 21.0213L16.5861 18.0183C16.0686 16.9832 16.0168 15.8445 16.3791 14.8094C16.7414 13.7742 17.466 12.8944 18.5012 12.4285Z" fill="url(#paint0_linear_2019_2524)"/>
<defs>
<linearGradient id="paint0_linear_2019_2524" x1="3.94409" y1="3.83572" x2="3.94409" y2="28.1638" gradientUnits="userSpaceOnUse">
<stop stop-color="#5DB2F2"/>
<stop offset="1" stop-color="#80DBFE"/>
</linearGradient>
</defs>
</svg>
