<svg width="37" height="36" viewBox="0 0 37 36" fill="none" xmlns="http://www.w3.org/2000/svg">
<path d="M30.8189 9.81873C31.4481 9.81891 31.9633 10.334 32.0777 10.9633V30.3011C32.0775 30.9303 31.5623 31.4446 30.9331 31.4447H23.3238V22.2914C23.3238 21.662 22.8086 21.1469 22.1792 21.1469H14.9702C14.3411 21.147 13.8267 21.6622 13.8267 22.2914V31.4447H6.21732C5.58809 31.4447 5.07297 30.9303 5.07279 30.3011V10.9633C5.07279 10.3339 5.58798 9.81873 6.21732 9.81873H30.8189ZM21.0347 31.4447H16.0572V23.4349H21.0347V31.4447ZM18.5181 11.764C17.8888 11.764 17.3736 12.2792 17.3736 12.9086V14.0521H16.229C15.5998 14.0523 15.0855 14.5674 15.0855 15.1967C15.0855 15.8259 15.5998 16.3411 16.229 16.3412H17.3736V17.4847C17.3736 18.1141 17.8888 18.6293 18.5181 18.6293C19.1473 18.6291 19.6617 18.114 19.6617 17.4847V16.3412H20.8062C21.4355 16.3412 21.9507 15.826 21.9507 15.1967C21.9507 14.5673 21.4355 14.0521 20.8062 14.0521H19.6617V12.9086C19.6617 12.2793 19.1473 11.7642 18.5181 11.764ZM23.0376 4.55505C23.667 4.55507 24.1822 5.07026 24.1822 5.69958V7.6449H11.7671V5.69958C11.7671 5.07033 12.2815 4.5552 12.9107 4.55505H23.0376Z" fill="url(#paint0_linear_2021_862)"/>
<defs>
<linearGradient id="paint0_linear_2021_862" x1="5.07279" y1="9.81865" x2="5.07279" y2="31.4451" gradientUnits="userSpaceOnUse">
<stop stop-color="#1CBDA1"/>
<stop offset="1" stop-color="#4CD6B3"/>
</linearGradient>
</defs>
</svg>
