<svg width="37" height="36" viewBox="0 0 37 36" fill="none" xmlns="http://www.w3.org/2000/svg">
<g clip-path="url(#clip0_11_101)">
<path fill-rule="evenodd" clip-rule="evenodd" d="M28.8664 30.9342C29.5164 30.3042 29.8964 29.4742 29.8964 28.6342V8.22422C29.8964 7.88422 29.5464 7.36422 29.0164 7.36422C28.4964 7.36422 28.1464 7.71422 28.1464 8.22422V28.2942C28.1464 29.1642 27.2764 30.0242 26.3864 30.0242H10.9664C9.87641 30.0242 8.68641 29.1142 8.68641 28.2942V26.3842C8.68641 25.5242 9.75641 25.0042 10.7864 25.0042H25.5164C26.0364 25.0042 26.3864 24.6642 26.3864 24.1442V7.18422C26.3864 5.29422 25.0064 4.07422 22.8764 4.07422H10.9664C9.10641 4.07422 7.10641 5.04422 7.10641 7.18422V28.4642V28.9842C7.29641 30.6142 8.94641 31.7642 10.4364 31.9242H10.7864H26.3864C27.3064 31.9242 28.1864 31.5742 28.8664 30.9342ZM26.5671 27.6054C26.5671 27.0854 26.2171 26.7354 25.6871 26.7354H11.3171C10.7871 26.7354 10.4371 27.0854 10.4371 27.6054C10.4371 28.1154 10.7871 28.4654 11.3171 28.4654H25.6871C26.2171 28.4654 26.5671 28.1154 26.5671 27.6054Z" fill="url(#paint0_linear_11_101)"/>
</g>
<defs>
<linearGradient id="paint0_linear_11_101" x1="7.10641" y1="4.07422" x2="7.10641" y2="31.9242" gradientUnits="userSpaceOnUse">
<stop stop-color="#5DB2F2"/>
<stop offset="1" stop-color="#80DBFE"/>
</linearGradient>
<clipPath id="clip0_11_101">
<rect width="36" height="36" fill="white" transform="translate(0.5)"/>
</clipPath>
</defs>
</svg>
