<svg width="37" height="36" viewBox="0 0 37 36" fill="none" xmlns="http://www.w3.org/2000/svg">
<g clip-path="url(#clip0_2019_1336)">
<path fill-rule="evenodd" clip-rule="evenodd" d="M9.29328 31.7378C13.0833 31.7378 16.1633 27.9478 16.1633 23.2778V15.7178L17.0533 14.7278C17.9033 13.7878 19.1533 13.7478 20.0333 14.6278L20.8333 15.4278V23.2478C20.8333 27.8978 23.9133 31.7078 27.6933 31.7078H32.6933C34.0033 31.7078 35.0733 30.3878 35.0733 28.7778V21.5778C35.0733 13.9578 30.0133 7.71781 23.8233 7.71781H22.9233C21.7733 7.71781 20.8333 8.87781 20.8333 10.3078V12.6978C20.3733 12.3178 19.8633 12.0678 19.3533 11.9478V5.31781C19.3533 4.73781 18.9633 4.25781 18.4833 4.25781C18.0033 4.25781 17.6133 4.73781 17.6133 5.31781V12.0078C17.1033 12.1678 16.6033 12.4478 16.1633 12.8678V10.3378C16.1633 8.91781 15.2233 7.75781 14.0633 7.75781H13.1633C10.1733 7.75781 7.35328 9.19781 5.22328 11.8278C3.09328 14.4478 1.92328 17.9278 1.92328 21.6078V28.8078C1.92328 30.4278 2.99328 31.7378 4.30328 31.7378H9.29328Z" fill="url(#paint0_linear_2019_1336)"/>
</g>
<defs>
<linearGradient id="paint0_linear_2019_1336" x1="1.15611" y1="3.87602" x2="2.63378" y2="32.6623" gradientUnits="userSpaceOnUse">
<stop stop-color="#5E9AFF"/>
<stop offset="1" stop-color="#ADD0FF"/>
</linearGradient>
<clipPath id="clip0_2019_1336">
<rect width="36" height="36" fill="white" transform="translate(0.5)"/>
</clipPath>
</defs>
</svg>
