<svg width="37" height="36" viewBox="0 0 37 36" fill="none" xmlns="http://www.w3.org/2000/svg">
<path d="M31.625 21.7339C31.625 24.6637 26.0527 27.938 18.125 27.938C10.1974 27.938 4.62502 24.7213 4.625 21.7915V19.2065C7.49735 21.5618 12.4378 23.0552 18.125 23.0552C23.8122 23.0552 28.7527 21.5042 31.625 19.1489V21.7339ZM22.0889 20.1255C20.825 20.2978 19.5037 20.4126 18.125 20.4126C10.1973 20.4126 4.625 17.1383 4.625 14.2085C4.625 12.3128 7.03796 10.245 10.9443 9.03857L22.0889 20.1255ZM18.125 8.06201C26.0527 8.06201 31.625 11.2787 31.625 14.2085C31.625 16.1616 29.155 18.2296 25.1914 19.436L14.1035 8.34912C15.3673 8.17678 16.6888 8.06201 18.125 8.06201Z" fill="url(#paint0_linear_2019_2553)"/>
<defs>
<linearGradient id="paint0_linear_2019_2553" x1="4.625" y1="8.06201" x2="4.625" y2="27.938" gradientUnits="userSpaceOnUse">
<stop stop-color="#FF8273"/>
<stop offset="1" stop-color="#FFBCAD"/>
</linearGradient>
</defs>
</svg>
