<svg width="30" height="30" viewBox="0 0 30 30" fill="none" xmlns="http://www.w3.org/2000/svg">
<g clip-path="url(#clip0_2016_1365)">
<mask id="mask0_2016_1365" style="mask-type:luminance" maskUnits="userSpaceOnUse" x="0" y="0" width="30" height="30">
<path fill-rule="evenodd" clip-rule="evenodd" d="M0 0H30V30H0V0Z" fill="white"/>
</mask>
<g mask="url(#mask0_2016_1365)">
<path fill-rule="evenodd" clip-rule="evenodd" d="M26.3557 21.5372V17.2972C26.3557 15.3172 24.7457 13.7172 22.7657 13.7172H17.6757C15.6957 13.7172 14.0957 15.3172 14.0957 17.2972V21.5372C14.0957 23.5172 15.6957 25.1172 17.6757 25.1172H22.7657C24.7457 25.1172 26.3557 23.5172 26.3557 21.5372Z" fill="#93EDF7"/>
<path fill-rule="evenodd" clip-rule="evenodd" d="M6.27648 4.88123C4.82648 4.88123 3.64648 6.06123 3.64648 7.51123V22.4912C3.64648 23.9412 4.82648 25.1212 6.27648 25.1212H18.2165C19.6665 25.1212 20.8365 23.9412 20.8365 22.4912V7.51123C20.8365 6.06123 19.6665 4.88123 18.2165 4.88123H6.27648ZM13.4684 14.7353C13.4684 14.2853 13.1084 13.9253 12.6584 13.9253H8.12836C7.67836 13.9253 7.31836 14.2853 7.31836 14.7353V15.7153C7.31836 16.1653 7.67836 16.5253 8.12836 16.5253H12.6584C13.1084 16.5253 13.4684 16.1653 13.4684 15.7153V14.7353ZM17.1684 9.87018C17.1684 9.42018 16.8084 9.06018 16.3584 9.06018H8.12836C7.67836 9.06018 7.31836 9.42018 7.31836 9.87018V10.8502C7.31836 11.3002 7.67836 11.6602 8.12836 11.6602H16.3584C16.8084 11.6602 17.1684 11.3002 17.1684 10.8502V9.87018Z" fill="#45D4E6"/>
</g>
</g>
<defs>
<clipPath id="clip0_2016_1365">
<rect width="30" height="30" fill="white"/>
</clipPath>
</defs>
</svg>
