<svg width="33" height="32" viewBox="0 0 33 32" fill="none" xmlns="http://www.w3.org/2000/svg">
<g clip-path="url(#clip0_2019_7354)">
<path d="M20.9585 29.2667C21.4917 29.8 21.4914 30.5996 21.0249 31.1329C20.7582 31.3996 20.4246 31.5333 20.0913 31.5333C19.8248 31.5332 19.4916 31.4666 19.2251 31.2003L18.2251 30.2667L18.8247 30.1329L19.6255 27.9337L20.9585 29.2667ZM19.0249 21.7999L16.8921 27.7999L10.6919 28.9337L6.62549 24.0665L8.7583 18.0665L14.8921 16.9337L19.0249 21.7999ZM3.7583 24.6671L4.2915 25.3331L2.2915 25.7999C2.15831 25.8665 2.09171 25.8663 1.9585 25.8663C1.3585 25.8663 0.825228 25.4663 0.691895 24.8663C0.492066 24.1331 0.958896 23.4667 1.62549 23.2667L4.4917 22.5997L3.7583 24.6671ZM32.2251 20.5333C32.7583 20.9999 32.7582 21.7996 32.2251 22.3995C31.9584 22.6662 31.6248 22.7999 31.2915 22.7999C31.025 22.7999 30.6918 22.7332 30.4253 22.4669L28.8921 21.0001L29.6919 20.8663L30.4253 18.8663L32.2251 20.5333ZM29.8921 12.4669L27.7583 18.5333L21.5581 19.6671L17.4917 14.7999L19.6255 8.7999L25.7583 7.5997L29.8921 12.4669ZM6.7583 11.3331C7.42497 11.0664 8.22503 11.3334 8.4917 12.0001L9.89209 15.2003L7.2251 15.7335L6.09131 13.0665C5.82477 12.3999 6.0917 11.5997 6.7583 11.3331ZM24.8921 1.53329C25.0255 0.800015 25.7587 0.399966 26.4253 0.533295C27.1584 0.666725 27.5585 1.33332 27.4253 2.0665L26.8247 4.7999L24.0249 5.3331L24.8921 1.53329Z" fill="url(#paint0_linear_2019_7354)"/>
</g>
<defs>
<linearGradient id="paint0_linear_2019_7354" x1="-8.14875" y1="6.77668" x2="4.11579" y2="38.0601" gradientUnits="userSpaceOnUse">
<stop stop-color="#FFAE71"/>
<stop offset="1" stop-color="#F49E64"/>
</linearGradient>
<clipPath id="clip0_2019_7354">
<rect width="32" height="32" fill="white" transform="translate(0.625)"/>
</clipPath>
</defs>
</svg>
