<svg width="33" height="32" viewBox="0 0 33 32" fill="none" xmlns="http://www.w3.org/2000/svg">
<path d="M16.9841 3.61212C17.5759 3.61238 18.06 4.09651 18.0603 4.68829C18.0603 5.28029 17.5761 5.76519 16.9841 5.76544C16.2306 5.76544 15.5845 6.08849 15.2615 6.68048C14.9385 7.21876 14.9377 7.81113 15.2068 8.34943L18.9753 14.4324C19.0279 14.4324 19.029 14.4837 19.0291 14.4861C19.352 15.132 19.9981 15.5085 20.8054 15.5086C21.6129 15.5086 22.2588 15.1321 22.5818 14.4861L22.6365 14.4324L26.4041 8.34943C26.6732 7.86494 26.6733 7.27251 26.3503 6.73419C25.9735 6.14217 25.3274 5.81915 24.6277 5.81915C24.0357 5.81907 23.5517 5.33491 23.5515 4.74298C23.5515 4.15088 24.0356 3.66591 24.6277 3.66583C26.0812 3.66583 27.3731 4.36617 28.1267 5.60431C28.8264 6.73466 28.8808 8.13399 28.2888 9.31818L28.2341 9.37189L24.4666 15.4549C23.9283 16.5314 22.9055 17.2316 21.7751 17.5008C21.506 20.3001 20.4827 27.2985 16.7683 28.2137C16.4992 28.2675 16.2298 28.3211 15.9607 28.3211C14.1304 28.321 12.1383 26.8678 9.98511 23.8533C10.6848 23.5304 11.277 23.1531 11.7615 22.6688C14.2916 26.114 15.7456 26.2754 16.2839 26.1678C18.1141 25.6832 19.2987 21.0539 19.6755 17.3934C18.6527 17.0704 17.791 16.4239 17.2527 15.4549L13.3767 9.37189C13.3231 9.37176 13.323 9.31818 13.323 9.31818C12.6771 8.1339 12.7306 6.73388 13.4304 5.54962C14.1841 4.36542 15.5307 3.61212 16.9841 3.61212ZM7.56323 14.2713C9.77026 14.2714 11.6003 16.0476 11.6003 18.2547C11.6002 20.4617 9.77019 22.238 7.56323 22.2381C5.35618 22.2381 3.52526 20.4617 3.52515 18.2547C3.52515 16.0476 5.35611 14.2713 7.56323 14.2713Z" fill="url(#paint0_linear_2019_2461)"/>
<defs>
<linearGradient id="paint0_linear_2019_2461" x1="3.52515" y1="3.61212" x2="3.52515" y2="28.3211" gradientUnits="userSpaceOnUse">
<stop stop-color="#5DB2F2"/>
<stop offset="1" stop-color="#80DBFE"/>
</linearGradient>
</defs>
</svg>
