<svg width="33" height="32" viewBox="0 0 33 32" fill="none" xmlns="http://www.w3.org/2000/svg">
<path d="M28.4394 2.87527C27.8224 2.87527 27.3176 3.38007 27.3176 3.99705V6.91367H25.691V3.94096C25.691 3.32398 25.1862 2.81918 24.5692 2.81918C23.9523 2.81918 23.4475 3.32398 23.4475 3.94096V6.85758H9.2009V3.94096C9.2009 3.32398 8.6961 2.81918 8.07912 2.81918C7.46215 2.81918 6.95735 3.32398 6.95735 3.94096V6.85758H5.38686V3.94096C5.38686 3.32398 4.88206 2.81918 4.26509 2.81918C3.64811 2.81918 3.14331 3.32398 3.14331 3.94096V11.5129C3.14331 12.1299 3.64811 12.6347 4.26509 12.6347C4.88206 12.6347 5.38686 12.1299 5.38686 11.5129V8.98895H7.01344V11.5129C7.01344 12.1299 7.51824 12.6347 8.13521 12.6347C8.75219 12.6347 9.25699 12.1299 9.25699 11.5129V8.98895H23.5596V11.5129C23.5596 12.1299 24.0644 12.6347 24.6814 12.6347C25.2984 12.6347 25.8032 12.1299 25.8032 11.5129V8.98895H27.4298V11.5129C27.4298 12.1299 27.9346 12.6347 28.5515 12.6347C29.1685 12.6347 29.6733 12.1299 29.6733 11.5129V3.94096C29.5611 3.38007 29.0563 2.87527 28.4394 2.87527Z" fill="url(#paint0_linear_2019_7364)"/>
<path d="M28.4394 19.3653C27.8224 19.3653 27.3176 19.8701 27.3176 20.4871V23.4037H25.691V20.4871C25.691 19.8701 25.1862 19.3653 24.5692 19.3653C23.9523 19.3653 23.4475 19.8701 23.4475 20.4871V23.4037H9.2009V20.4871C9.2009 19.8701 8.6961 19.3653 8.07912 19.3653C7.46215 19.3653 6.95735 19.8701 6.95735 20.4871V23.4037H5.38686V20.4871C5.38686 19.8701 4.88206 19.3653 4.26509 19.3653C3.64811 19.3653 3.14331 19.8701 3.14331 20.4871V28.0591C3.14331 28.676 3.64811 29.1808 4.26509 29.1808C4.88206 29.1808 5.38686 28.676 5.38686 28.0591V25.5351H7.01344V28.0591C7.01344 28.676 7.51824 29.1808 8.13521 29.1808C8.75219 29.1808 9.25699 28.676 9.25699 28.0591V25.5351H23.5596V28.0591C23.5596 28.676 24.0644 29.1808 24.6814 29.1808C25.2984 29.1808 25.8032 28.676 25.8032 28.0591V25.5351H27.4298V28.0591C27.4298 28.676 27.9346 29.1808 28.5515 29.1808C29.1685 29.1808 29.6733 28.676 29.6733 28.0591V20.431C29.5611 19.814 29.0563 19.3653 28.4394 19.3653Z" fill="url(#paint1_linear_2019_7364)"/>
<defs>
<linearGradient id="paint0_linear_2019_7364" x1="3.14331" y1="2.81918" x2="3.14331" y2="12.6347" gradientUnits="userSpaceOnUse">
<stop stop-color="#FF8273"/>
<stop offset="1" stop-color="#FFBCAD"/>
</linearGradient>
<linearGradient id="paint1_linear_2019_7364" x1="3.14331" y1="19.3653" x2="3.14331" y2="29.1808" gradientUnits="userSpaceOnUse">
<stop stop-color="#FF8273"/>
<stop offset="1" stop-color="#FFBCAD"/>
</linearGradient>
</defs>
</svg>
