<svg width="44" height="44" viewBox="0 0 44 44" fill="none" xmlns="http://www.w3.org/2000/svg">
<g clip-path="url(#clip0_11_59)">
<path fill-rule="evenodd" clip-rule="evenodd" d="M0 10C0 4.47715 4.47715 0 10 0H34C39.5228 0 44 4.47715 44 10V34C44 39.5228 39.5228 44 34 44H10C4.47715 44 0 39.5228 0 34V10Z" fill="url(#paint0_linear_11_59)"/>
<g clip-path="url(#clip1_11_59)">
<path fill-rule="evenodd" clip-rule="evenodd" d="M35.0674 31.05V17.08C35.0674 15.15 33.4874 13.59 31.5574 13.59H30.6074V13.07C30.6074 11.08 28.9774 9.45996 26.9774 9.45996H17.0174C15.0174 9.45996 13.3974 11.08 13.3974 13.07V13.59H12.4374C11.5074 13.59 10.6274 13.95 9.96744 14.61C9.30744 15.27 8.93744 16.15 8.93744 17.08V31.05C8.93744 32.97 10.5074 34.54 12.4374 34.54H31.5574C33.4874 34.54 35.0674 32.97 35.0674 31.05ZM11.3188 32.1715C11.6088 32.4715 12.0188 32.6315 12.4388 32.6315H31.5588C31.9788 32.6315 32.3888 32.4715 32.6888 32.1715C32.9888 31.8715 33.1488 31.4715 33.1488 31.0515V20.5715H10.8488V31.0515C10.8488 31.4715 11.0188 31.8715 11.3188 32.1715ZM10.8488 17.0817V18.6717H33.1488V17.0817C33.1488 16.6517 32.9888 16.2617 32.6888 15.9617C32.3888 15.6617 31.9788 15.4917 31.5588 15.4917H12.4388C12.0188 15.4917 11.6088 15.6617 11.3188 15.9617C11.0188 16.2617 10.8488 16.6517 10.8488 17.0817ZM15.3096 13.5845H28.6896V13.0645C28.6896 12.1245 27.9196 11.3645 26.9796 11.3645H17.0196C16.0796 11.3645 15.3096 12.1245 15.3096 13.0645V13.5845Z" fill="white"/>
<path fill-rule="evenodd" clip-rule="evenodd" d="M22.9581 27.1596H25.1881C25.7081 27.1596 26.1381 26.7396 26.1381 26.2096C26.1381 25.6796 25.7081 25.2596 25.1881 25.2596H22.9581V23.0296C22.9581 22.5096 22.5281 22.0796 21.9981 22.0796C21.4781 22.0796 21.0481 22.5096 21.0481 23.0296V25.2596H18.8181C18.2881 25.2596 17.8581 25.6796 17.8581 26.2096C17.8581 26.7396 18.2881 27.1596 18.8181 27.1596H21.0481V29.3796C21.0481 29.9096 21.4781 30.3396 21.9981 30.3396C22.5281 30.3396 22.9581 29.9096 22.9581 29.3796V27.1596Z" fill="white"/>
</g>
</g>
<defs>
<linearGradient id="paint0_linear_11_59" x1="-18.0332" y1="24.5971" x2="25.9668" y2="60.6636" gradientUnits="userSpaceOnUse">
<stop stop-color="#00B4C4"/>
<stop offset="1" stop-color="#00C0AB"/>
</linearGradient>
<clipPath id="clip0_11_59">
<rect width="44" height="44" fill="white"/>
</clipPath>
<clipPath id="clip1_11_59">
<rect width="26.1252" height="25.0803" fill="white" transform="translate(8.93744 9.45996)"/>
</clipPath>
</defs>
</svg>
