<svg width="44" height="44" viewBox="0 0 44 44" fill="none" xmlns="http://www.w3.org/2000/svg">
<g clip-path="url(#clip0_11_87)">
<path fill-rule="evenodd" clip-rule="evenodd" d="M0 10C0 4.47715 4.47715 0 10 0H34C39.5228 0 44 4.47715 44 10V34C44 39.5228 39.5228 44 34 44H10C4.47715 44 0 39.5228 0 34V10Z" fill="url(#paint0_linear_11_87)"/>
<path fill-rule="evenodd" clip-rule="evenodd" d="M31.7021 35.2885C32.8321 35.2885 33.7621 34.3785 33.7621 33.2485V29.0585C33.7621 28.4585 33.4921 27.8985 33.0021 27.4785L28.4721 24.0185C29.3821 22.9985 29.9621 21.9585 30.1921 19.6585C30.2721 18.8685 30.5521 13.6585 30.3621 11.5085C30.2221 9.9085 28.9121 8.7085 27.3121 8.7085H16.8221C15.2321 8.7085 13.8921 9.9485 13.7621 11.5285C13.5921 13.6585 13.8621 18.7185 13.9221 19.6285C14.0621 21.6585 14.6221 22.6985 15.6121 23.9185L10.9321 27.5185C10.4921 27.9085 10.2421 28.4685 10.2421 29.0585V33.2485C10.2421 34.3785 11.1621 35.2885 12.3021 35.2885H31.7021ZM17.8572 23.4192C18.0372 23.6392 18.1272 23.9092 18.0972 24.1892C18.0672 24.4692 17.9172 24.7292 17.6972 24.8892L12.2872 29.0592V33.2492H31.7072L31.7172 29.0592L26.3372 24.9592C26.1072 24.7792 25.9572 24.5192 25.9372 24.2292C25.9172 23.9492 26.0172 23.6592 26.2072 23.4492L26.5172 23.1192C27.4672 22.1092 27.9372 21.6092 28.1572 19.4492C28.1772 19.1992 28.2372 18.3992 28.2772 17.3992H15.8472C15.8972 18.4292 15.9372 19.2392 15.9572 19.4892C16.0872 21.3492 16.5772 21.9192 17.7672 23.3092L17.8572 23.4192ZM27.3111 10.7532H16.8211C16.2911 10.7532 15.8411 11.1632 15.8011 11.6932C15.7311 12.5532 15.7411 13.9632 15.7811 15.3532H28.3511C28.3911 13.9432 28.4011 12.5232 28.3311 11.6832C28.2811 11.1532 27.8411 10.7532 27.3111 10.7532ZM23.2821 31.7098V27.1098C23.2821 26.5498 22.8221 26.0898 22.2521 26.0898H21.7421C21.1821 26.0898 20.7221 26.5498 20.7221 27.1098V31.7098H23.2821Z" fill="white"/>
</g>
<defs>
<linearGradient id="paint0_linear_11_87" x1="-23.1274" y1="22" x2="20.8726" y2="68.2547" gradientUnits="userSpaceOnUse">
<stop stop-color="#FE827A"/>
<stop offset="1" stop-color="#FFB29F"/>
</linearGradient>
<clipPath id="clip0_11_87">
<rect width="44" height="44" fill="white"/>
</clipPath>
</defs>
</svg>
