<svg width="106" height="67" viewBox="0 0 106 67" fill="none" xmlns="http://www.w3.org/2000/svg">
<path fill-rule="evenodd" clip-rule="evenodd" d="M49.5 7C32.93 7 19.5 20.43 19.5 37C19.5 53.57 32.93 67 49.5 67C66.07 67 79.5 53.57 79.5 37C79.5 20.43 66.07 7 49.5 7Z" fill="url(#paint0_linear_70_1093)"/>
<g clip-path="url(#clip0_70_1093)">
<path fill-rule="evenodd" clip-rule="evenodd" d="M46.5962 48.8518C46.6262 48.8318 46.6462 48.8018 46.6762 48.7718L65.1562 28.7718C65.5062 28.4018 65.5062 27.8118 65.1462 27.4318C64.7962 27.0618 64.2162 27.0118 63.8062 27.3418L46.4762 41.3618C46.1462 41.6418 45.6762 41.6618 45.3162 41.4218L36.3862 35.6118C35.9762 35.3418 35.4262 35.4218 35.1062 35.7918C34.7762 36.1518 34.7762 36.7018 35.0962 37.0718L45.1962 48.7518C45.5562 49.1618 46.1762 49.2118 46.5962 48.8518Z" fill="white"/>
</g>
<g clip-path="url(#clip1_70_1093)">
<path fill-rule="evenodd" clip-rule="evenodd" d="M5.49645 36.106C3.34645 36.106 1.60645 37.846 1.60645 39.996C1.60645 42.146 3.34645 43.896 5.49645 43.896C7.64645 43.896 9.39645 42.146 9.39645 39.996C9.39645 37.846 7.64645 36.106 5.49645 36.106Z" fill="#46D7B3"/>
</g>
<g clip-path="url(#clip2_70_1093)">
<path fill-rule="evenodd" clip-rule="evenodd" d="M14.4942 60.6425C14.8642 60.6425 15.1542 60.3525 15.1542 59.9925V56.0025C15.1542 55.6425 14.8642 55.3525 14.4942 55.3525C14.1342 55.3525 13.8442 55.6425 13.8442 56.0025V59.9925C13.8442 60.3525 14.1342 60.6425 14.4942 60.6425Z" fill="#46D7B3"/>
<path fill-rule="evenodd" clip-rule="evenodd" d="M17.1521 57.9955C17.1521 57.6355 16.8521 57.3455 16.4921 57.3455H12.5021C12.1421 57.3455 11.8521 57.6355 11.8521 57.9955C11.8521 58.3655 12.1421 58.6555 12.5021 58.6555H16.4921C16.8521 58.6555 17.1521 58.3655 17.1521 57.9955Z" fill="#46D7B3"/>
</g>
<g clip-path="url(#clip3_70_1093)">
<path fill-rule="evenodd" clip-rule="evenodd" d="M92.5 29.1084C92.92 29.1084 93.27 28.7684 93.27 28.3384V23.6584C93.27 23.2284 92.92 22.8884 92.5 22.8884C92.08 22.8884 91.73 23.2284 91.73 23.6584V28.3384C91.73 28.7684 92.08 29.1084 92.5 29.1084Z" fill="#46D7B3"/>
<path fill-rule="evenodd" clip-rule="evenodd" d="M95.6087 25.9995C95.6087 25.5695 95.2687 25.2295 94.8387 25.2295H90.1587C89.7287 25.2295 89.3887 25.5695 89.3887 25.9995C89.3887 26.4195 89.7287 26.7695 90.1587 26.7695H94.8387C95.2687 26.7695 95.6087 26.4195 95.6087 25.9995Z" fill="#46D7B3"/>
</g>
<g clip-path="url(#clip4_70_1093)">
<path fill-rule="evenodd" clip-rule="evenodd" d="M100.499 57.6379C99.1992 57.6379 98.1392 58.6979 98.1392 59.9979C98.1392 61.3079 99.1992 62.3579 100.499 62.3579C101.809 62.3579 102.859 61.3079 102.859 59.9979C102.859 58.6979 101.809 57.6379 100.499 57.6379Z" fill="#46D7B3"/>
</g>
<g clip-path="url(#clip5_70_1093)">
<path fill-rule="evenodd" clip-rule="evenodd" d="M79.5017 13.2546C80.3517 13.2546 81.0517 12.5646 81.0517 11.7046V2.29463C81.0517 1.43463 80.3517 0.744629 79.5017 0.744629C78.6417 0.744629 77.9517 1.43463 77.9517 2.29463V11.7046C77.9517 12.5646 78.6417 13.2546 79.5017 13.2546Z" fill="#46D7B3"/>
<path fill-rule="evenodd" clip-rule="evenodd" d="M85.7546 7.00142C85.7546 6.14142 85.0646 5.45142 84.2046 5.45142H74.7946C73.9346 5.45142 73.2446 6.14142 73.2446 7.00142C73.2446 7.85142 73.9346 8.55142 74.7946 8.55142H84.2046C85.0646 8.55142 85.7546 7.85142 85.7546 7.00142Z" fill="#46D7B3"/>
</g>
<defs>
<linearGradient id="paint0_linear_70_1093" x1="16.4125" y1="60.8249" x2="76.4125" y2="67" gradientUnits="userSpaceOnUse">
<stop stop-color="#4BDBC7"/>
<stop offset="1" stop-color="#45D7AF"/>
</linearGradient>
<clipPath id="clip0_70_1093">
<rect width="40" height="40" fill="white" transform="translate(29.5 17)"/>
</clipPath>
<clipPath id="clip1_70_1093">
<rect width="10" height="10" fill="white" transform="translate(0.5 35)"/>
</clipPath>
<clipPath id="clip2_70_1093">
<rect width="10" height="10" fill="white" transform="translate(9.5 53)"/>
</clipPath>
<clipPath id="clip3_70_1093">
<rect width="10" height="10" fill="white" transform="translate(87.5 21)"/>
</clipPath>
<clipPath id="clip4_70_1093">
<rect width="10" height="10" fill="white" transform="translate(95.5 55)"/>
</clipPath>
<clipPath id="clip5_70_1093">
<rect width="14" height="14" fill="white" transform="translate(72.5)"/>
</clipPath>
</defs>
</svg>
